<svg width="27" height="25" viewBox="0 0 27 25" fill="none" xmlns="http://www.w3.org/2000/svg">
<path d="M23.1997 0.599609H25.9998C26.3998 0.699609 26.4998 1.09966 26.2998 1.39966C21.1998 6.19966 17.0998 12.0996 13.2998 18.0996C12.6998 19.1996 11.8997 20.6996 11.1997 21.6996C10.9997 21.8996 10.6998 22.0997 10.3998 21.8997C10.1998 21.7997 9.19976 20.0996 8.99976 19.6996C8.33309 18.6996 7.63311 17.6996 6.89978 16.6996C5.79978 15.0996 4.19971 13.2996 3.19971 11.5996C3.09971 11.2996 2.99973 11.1997 3.09973 10.8997L4.7998 9.09961C5.1998 8.79961 5.59978 9.19966 5.89978 9.39966C7.49978 10.3997 8.99973 11.5996 10.5997 12.5996C13.0997 9.39961 15.7998 6.39965 18.8998 3.69965C20.2998 2.59965 21.6997 1.49961 23.1997 0.599609ZM1.49976 5.69965V23.8997H19.7998V11.6996L19.9998 11.3997C20.4998 11.1997 20.8998 11.4996 20.8998 11.9996V24.2996C20.8998 24.6996 20.7998 24.9996 20.3998 24.9996H0.699707L0.299805 24.5996V4.89966L0.599731 4.49963H13.5997C13.9997 4.59963 14.1998 5.09963 13.8998 5.49963C13.7998 5.49963 13.4998 5.69965 13.4998 5.69965H1.49976Z" fill="#2C11A1"/>
</svg>
