<svg width="31" height="23" viewBox="0 0 31 23" fill="none" xmlns="http://www.w3.org/2000/svg">
<path fill-rule="evenodd" clip-rule="evenodd" d="M0.5 11.2993C3.1 6.7993 7.7 3.19933 13 2.39933C15.6667 1.99933 18.2667 2.23262 20.8 3.09928C21.2 3.19928 21.6 3.39928 22.1 3.59928L25.4 0.399333C26.3 -0.000666954 27.2 1.09933 26.6 1.89933L5.59998 22.5993C4.59998 22.9993 3.80002 21.9993 4.40002 21.1993C5.10002 20.2993 6.5 19.3993 7 18.5993C7.1 18.4993 7.09998 18.4993 7.09998 18.3993C4.39998 16.7993 2 14.3993 0.5 11.6993V11.2993ZM14.7 4.09928C9.59995 4.39928 5.2 7.49928 2.5 11.5993C4 13.8993 6.1 15.6993 8.5 17.0993L10.9 14.7993C7.30002 9.5993 13.5 3.49931 18.8 6.99931L20.7 5.09928C18.8 4.29928 16.7 3.99928 14.7 4.09928ZM15.1 7.89933C12.4 8.09933 10.8 11.1993 12.3 13.3993L17.4 8.39933C16.7 7.99933 15.9 7.79933 15.1 7.89933ZM10.8 20.1993L12.4 18.6993C18.7 20.1993 25.1 16.7993 28.5 11.5993C27.5 10.1993 26.4 8.8993 25.1 7.7993C25 7.6993 24.2 7.09928 24.1 7.09928C24.1 6.99928 24.1 6.89933 24.2 6.89933C24.3 6.79933 25.3 5.69932 25.4 5.69932C25.5 5.69932 26.3 6.29933 26.4 6.39933C27.4 7.29933 28.5 8.39933 29.3 9.39933C29.6 9.79933 30.3 10.6993 30.4 11.1993C30.6 11.4993 30.6 11.6993 30.4 12.0993C29.9 13.2993 27.9 15.3993 26.9 16.2993C22.5 20.2993 16.6 21.8993 10.8 20.1993ZM21 10.1993C22.1 14.1993 18.2 18.0993 14.1 16.9993C14.1 16.8993 14.1 16.8993 14.2 16.7993C14.3 16.5993 15.6 15.3993 15.7 15.2993C15.9 15.1993 16.3 15.1993 16.5 15.0993C17.7 14.7993 18.8 13.6993 19.1 12.5993C19.2 12.2993 19.2 11.9993 19.3 11.7993C19.3 11.6993 20.6 10.3993 20.8 10.2993C20.8 10.1993 20.9 10.0993 21 10.1993Z" fill="#7D7D7D"/>
</svg>
