<svg width="28" height="29" viewBox="0 0 28 29" fill="none" xmlns="http://www.w3.org/2000/svg">
<path d="M14.8 28.499H13.2C12.9 28.399 12.5 28.399 12.1 28.399C5.99998 27.599 0.899976 22.599 0.0999756 16.399C0.0999756 15.999 0.1 15.699 0 15.299C0 14.799 0 14.199 0 13.699C0.7 1.69899 15.4 -3.90102 23.9 4.59898C32.4 13.099 26.8 27.799 14.8 28.499ZM23.3 22.499C23.4 22.599 23.4 22.499 23.5 22.399C24.1 21.799 24.8 20.499 25.2 19.699C28.5 12.699 24.5 4.39898 17.1 2.49898C8.39998 0.298978 0.400049 7.69898 1.80005 16.599C2.20005 18.799 3.19998 20.799 4.59998 22.499C4.69998 22.599 4.69995 22.499 4.69995 22.399C4.79995 22.099 4.89998 21.699 5.09998 21.299C5.99998 18.899 8.19995 16.799 10.7 15.899C10.7 15.799 10.2 15.499 10.1 15.399C7.39998 12.899 7.40002 8.69897 10.4 6.39897C14.8 2.89897 21 6.99897 19.7 12.399C19.4 13.799 18.5 14.999 17.3 15.799C17.7 16.099 18.1 16.199 18.5 16.399C20.9 17.599 22.7 19.899 23.3 22.499ZM13.6 6.79897C10.8 6.99897 8.99998 9.99898 10.1 12.599C11.4 15.799 15.9 16.099 17.7 13.099C19.4 10.099 17 6.39897 13.6 6.79897ZM21.9 23.999C21.3 18.199 14.8 14.999 9.80005 18.099C7.70005 19.399 6.39998 21.599 6.09998 23.999C10.2 27.399 16.1 27.799 20.6 24.899C21.1 24.699 21.5 24.299 21.9 23.999Z" fill="#3016A4"/>
</svg>
