<svg width="28" height="27" viewBox="0 0 28 27" fill="none" xmlns="http://www.w3.org/2000/svg">
<path d="M19.3003 0.199219C19.7003 0.199219 20.1002 0.199194 20.5002 0.299194C23.8002 0.999194 26.5002 3.69921 27.2002 6.99921L27.3003 8.19922C27.3003 8.49922 27.4003 8.89919 27.3003 9.29919C27.1003 13.1992 24.1002 16.5992 20.2002 17.1992C18.8002 17.3992 17.4002 17.2992 16.1002 16.8992L14.1002 18.8992C14.0002 18.8992 13.8003 18.9992 13.8003 18.9992H12.2002V20.5992C12.2002 20.6992 12.0002 20.9992 12.0002 20.9992C11.5002 21.4992 10.7002 21.0992 10.1002 21.0992C10.0002 21.1992 10.1003 22.6992 9.80029 23.0992C9.50029 23.6992 8.20022 23.4992 7.60022 23.5992C7.60022 24.0992 7.9002 24.6992 7.7002 25.1992C7.6002 25.4992 6.30024 26.6992 6.00024 26.7992C4.50024 26.5992 2.80027 26.8992 1.40027 26.7992C1.00027 26.6992 0.700195 26.3992 0.700195 26.0992V21.3992L1.00024 20.8992L10.5002 11.3992C10.6002 11.2992 10.4003 10.5992 10.3003 10.3992C9.40029 5.29923 12.9002 0.599219 18.1002 0.199219H18.2002H19.3003ZM2.2002 21.8992V25.1992H5.50024L6.10022 24.5992C6.10022 23.9992 5.70022 22.8992 6.10022 22.3992C6.50022 21.8992 7.80027 22.0992 8.40027 21.9992C8.50027 21.8992 8.5002 20.1992 8.7002 19.7992C9.1002 19.1992 10.0002 19.5992 10.6002 19.5992V18.0992C10.6002 17.9992 10.7003 17.6992 10.8003 17.6992C11.3003 17.1992 12.7003 17.5992 13.3003 17.3992C13.8003 17.0992 15.1002 15.2992 15.6002 15.1992C16.1002 15.0992 16.6002 15.3992 17.0002 15.4992C23.6002 17.1992 28.5002 9.29922 24.1002 4.19922C19.3002 -1.40078 10.1003 3.19923 11.9003 10.3992C12.0003 10.9992 12.4002 11.5992 12.0002 12.0992L2.2002 21.8992Z" fill="#3016A4"/>
</svg>
