<svg width="31" height="19" viewBox="0 0 31 19" fill="none" xmlns="http://www.w3.org/2000/svg">
<path d="M15.2 19C5.25516 19 0.324662 10.3303 0.1197 9.96146C-0.0399 9.67433 -0.0399 9.32544 0.1197 9.0383C0.324662 8.6697 5.25516 0 15.2 0C25.1448 0 30.0753 8.6697 30.2803 9.03854C30.4399 9.32567 30.4399 9.67456 30.2803 9.9617C30.0753 10.3303 25.1448 19 15.2 19ZM2.06791 9.49857C3.19794 11.2112 7.63467 17.1 15.2 17.1C22.7893 17.1 27.2063 11.2159 28.3321 9.50142C27.2021 7.78881 22.7653 1.9 15.2 1.9C7.61069 1.9 3.19366 7.78406 2.06791 9.49857ZM15.2 15.2C12.0569 15.2 9.5 12.6431 9.5 9.5C9.5 6.35692 12.0569 3.8 15.2 3.8C18.3431 3.8 20.9 6.35692 20.9 9.5C20.9 12.6431 18.3431 15.2 15.2 15.2ZM15.2 5.7C13.1048 5.7 11.4 7.40478 11.4 9.5C11.4 11.5952 13.1048 13.3 15.2 13.3C17.2952 13.3 19 11.5952 19 9.5C19 7.40478 17.2952 5.7 15.2 5.7Z" fill="#7D7D7D"/>
</svg>
